<svg width="71" height="31" viewBox="0 0 71 31" fill="none" xmlns="http://www.w3.org/2000/svg">
<path d="M3.25 6.49219L2.0625 5.77344C1.31771 5.32031 0.786458 4.875 0.46875 4.4375C0.15625 3.99479 -1.00141e-08 3.48698 -9.24053e-09 2.91406C-8.08019e-09 2.05469 0.296875 1.35677 0.890625 0.820312C1.48958 0.283854 2.26562 0.015625 3.21875 0.015625C4.13021 0.015625 4.96615 0.270833 5.72656 0.78125L5.72656 2.55469C4.9401 1.79948 4.09375 1.42187 3.1875 1.42187C2.67708 1.42187 2.25781 1.54167 1.92969 1.78125C1.60156 2.01562 1.4375 2.31771 1.4375 2.6875C1.4375 3.01562 1.55729 3.32292 1.79687 3.60937C2.03646 3.89583 2.42448 4.19531 2.96094 4.50781L4.15625 5.21094C5.48958 6.0026 6.15625 7.01302 6.15625 8.24219C6.15625 9.11719 5.86198 9.82812 5.27344 10.375C4.6901 10.9219 3.92969 11.1953 2.99219 11.1953C1.91406 11.1953 0.932292 10.8646 0.046875 10.2031L0.046875 8.21875C0.890625 9.28646 1.86719 9.82031 2.97656 9.82031C3.46615 9.82031 3.8724 9.6849 4.19531 9.41406C4.52344 9.13802 4.6875 8.79427 4.6875 8.38281C4.6875 7.71615 4.20833 7.08594 3.25 6.49219ZM15.5703 0.15625L17.1328 0.15625L17.1328 11.0703L15.5703 11.0703L15.5703 6.32031L9.4375 6.32031L9.4375 11.0703L7.875 11.0703L7.875 0.15625L9.4375 0.15625L9.4375 4.875L15.5703 4.875L15.5703 0.15625ZM24.9062 -2.4464e-08C26.5937 -2.6079e-08 27.9974 0.533854 29.1172 1.60156C30.2422 2.66927 30.8047 4.00781 30.8047 5.61719C30.8047 7.22656 30.237 8.5599 29.1016 9.61719C27.9714 10.6693 26.5443 11.1953 24.8203 11.1953C23.1745 11.1953 21.8021 10.6693 20.7031 9.61719C19.6094 8.5599 19.0625 7.23698 19.0625 5.64844C19.0625 4.01823 19.6146 2.66927 20.7187 1.60156C21.8229 0.533854 23.2187 -2.2849e-08 24.9062 -2.4464e-08ZM24.9687 1.48437C23.7187 1.48437 22.6901 1.875 21.8828 2.65625C21.0807 3.4375 20.6797 4.4349 20.6797 5.64844C20.6797 6.82552 21.0833 7.80469 21.8906 8.58594C22.6979 9.36719 23.7083 9.75781 24.9219 9.75781C26.1406 9.75781 27.1562 9.35937 27.9687 8.5625C28.7865 7.76562 29.1953 6.77344 29.1953 5.58594C29.1953 4.42969 28.7865 3.45833 27.9687 2.67187C27.1562 1.88021 26.1562 1.48437 24.9687 1.48437ZM32.6328 11.0703L32.6328 0.140625L36.0937 0.140625C37.1354 0.140625 37.9661 0.421875 38.5859 0.984375C39.2057 1.54687 39.5156 2.30208 39.5156 3.25C39.5156 3.88542 39.3568 4.44792 39.0391 4.9375C38.7214 5.42708 38.2865 5.78385 37.7344 6.00781C37.1823 6.22656 36.3906 6.33594 35.3594 6.33594L34.2031 6.33594L34.2031 11.0703L32.6328 11.0703ZM35.8203 1.53125L34.2031 1.53125L34.2031 4.94531L35.9141 4.94531C36.5495 4.94531 37.0391 4.79687 37.3828 4.5C37.7266 4.19792 37.8984 3.76823 37.8984 3.21094C37.8984 2.09115 37.2057 1.53125 35.8203 1.53125ZM10.5937 27C10.5937 27.9323 10.2734 28.6771 9.63281 29.2344C8.9974 29.7917 8.10677 30.0703 6.96094 30.0703L0.703125 30.0703L0.703125 19.2422L5.9375 19.2422C6.61458 19.2422 7.20312 19.3073 7.70312 19.4375C8.20833 19.5677 8.61458 19.7474 8.92187 19.9766C9.22917 20.2005 9.45833 20.4661 9.60937 20.7734C9.76042 21.0807 9.83594 21.4167 9.83594 21.7812C9.83594 22.1771 9.75781 22.5443 9.60156 22.8828C9.44531 23.2161 9.25 23.4922 9.01562 23.7109C8.78646 23.9245 8.55469 24.0755 8.32031 24.1641C9.0599 24.4557 9.6224 24.8255 10.0078 25.2734C10.3984 25.7161 10.5937 26.2917 10.5937 27ZM6.78125 22.3594C6.78125 21.8385 6.60937 21.4922 6.26562 21.3203C5.92187 21.1484 5.38542 21.0625 4.65625 21.0625L3.96875 21.0625L3.96875 23.6562L4.67187 23.6562C5.41667 23.6562 5.95312 23.5703 6.28125 23.3984C6.61458 23.2266 6.78125 22.8802 6.78125 22.3594ZM7.3125 26.8672C7.3125 25.9401 6.64062 25.4766 5.29687 25.4766L3.96875 25.4766L3.96875 28.25L5.29687 28.25C6.64062 28.25 7.3125 27.7891 7.3125 26.8672ZM24.1094 30.0703L20.7656 30.0703L19.8828 27.875L15.1797 27.875L14.2812 30.0703L10.9375 30.0703L15.7266 19.2422L19.3359 19.2422L24.1094 30.0703ZM19.1328 25.9922L17.5469 22.0391L15.9453 25.9922L19.1328 25.9922ZM36.9375 30.0703L32.9531 30.0703L28.8125 25L28.8125 30.0703L25.5469 30.0703L25.5469 19.2422L28.8125 19.2422L28.8125 24.0859L32.7344 19.2422L36.2812 19.2422L32.25 24.3125L36.9375 30.0703ZM46.5234 30.0703L38.3594 30.0703L38.3594 19.2422L46.3906 19.2422L46.3906 21.4141L41.625 21.4141L41.625 23.3984L46.1719 23.3984L46.1719 25.5781L41.625 25.5781L41.625 27.8906L46.5234 27.8906L46.5234 30.0703ZM59.2031 30.0703L55.6953 30.0703L54.8437 28.1484C54.5312 27.4453 54.25 26.9323 54 26.6094C53.75 26.2812 53.5052 26.0729 53.2656 25.9844C53.0312 25.8906 52.7266 25.8437 52.3516 25.8437L51.9844 25.8437L51.9844 30.0703L48.7187 30.0703L48.7187 19.2422L54.2734 19.2422C55.1693 19.2422 55.9036 19.4245 56.4766 19.7891C57.0495 20.1536 57.4609 20.5964 57.7109 21.1172C57.9661 21.638 58.0937 22.1328 58.0937 22.6016C58.0937 23.1484 57.987 23.612 57.7734 23.9922C57.5651 24.3672 57.3437 24.6406 57.1094 24.8125C56.875 24.9844 56.612 25.1484 56.3203 25.3047C56.6693 25.5078 56.9557 25.75 57.1797 26.0312C57.4089 26.3073 57.7187 26.8698 58.1094 27.7187L59.2031 30.0703ZM54.7656 22.6641C54.7656 22.1641 54.6016 21.8151 54.2734 21.6172C53.9453 21.4193 53.4115 21.3203 52.6719 21.3203L51.9844 21.3203L51.9844 23.9297L52.6875 23.9297C53.4844 23.9297 54.0286 23.8437 54.3203 23.6719C54.6172 23.4948 54.7656 23.1589 54.7656 22.6641ZM70.7812 19.2422L66.5391 25.1094L66.5391 30.0703L63.2734 30.0703L63.2734 25.1719L58.9531 19.2422L62.3437 19.2422L64.8281 22.6484L67.3203 19.2422L70.7812 19.2422Z" fill="#31261A"/>
</svg>
